<?xml version="1.0" encoding="UTF-8" standalone="no"?>
<!-- Created with Inkscape (http://www.inkscape.org/) -->

<svg
   width="188.82214mm"
   height="239.02mm"
   viewBox="0 0 188.82214 239.02"
   version="1.1"
   id="svg1"
   xml:space="preserve"
   inkscape:version="1.4 (86a8ad7, 2024-10-11)"
   sodipodi:docname="logo_negro_Ugel.svg"
   inkscape:export-filename="logo_Color_Ugel.png"
   inkscape:export-xdpi="96"
   inkscape:export-ydpi="96"
   xmlns:inkscape="http://www.inkscape.org/namespaces/inkscape"
   xmlns:sodipodi="http://sodipodi.sourceforge.net/DTD/sodipodi-0.dtd"
   xmlns="http://www.w3.org/2000/svg"
   xmlns:svg="http://www.w3.org/2000/svg"><sodipodi:namedview
     id="namedview1"
     pagecolor="#ffffff"
     bordercolor="#000000"
     borderopacity="0.25"
     inkscape:showpageshadow="2"
     inkscape:pageopacity="0.0"
     inkscape:pagecheckerboard="0"
     inkscape:deskcolor="#d1d1d1"
     inkscape:document-units="mm"
     inkscape:zoom="2.9683221"
     inkscape:cx="415.21774"
     inkscape:cy="401.40522"
     inkscape:window-width="1920"
     inkscape:window-height="1051"
     inkscape:window-x="-9"
     inkscape:window-y="-9"
     inkscape:window-maximized="1"
     inkscape:current-layer="layer1"
     inkscape:export-bgcolor="#ffffff00"><inkscape:page
       x="0"
       y="0"
       width="188.82214"
       height="239.02"
       id="page2"
       margin="0"
       bleed="0" /></sodipodi:namedview><defs
     id="defs1" /><g
     inkscape:label="Layer 1"
     inkscape:groupmode="layer"
     id="layer1"
     style="display:inline"
     transform="translate(-11.48451,-32.067082)"><path
       style="fill:#aa0300;fill-opacity:1;stroke-width:3.95265"
       d="m 36.329198,270.88163 -8.83267,-0.61168 -2.97082,-37.63986 C 22.891791,211.92819 19.289096,166.77552 16.519719,132.29088 13.750384,97.806224 11.48451,69.441409 11.48451,69.257974 c 0,-0.799759 8.753544,-3.992398 13.802232,-5.034027 5.480998,-1.130823 5.52056,-1.167066 5.4767,-5.018156 -0.02505,-2.133506 -0.440238,-7.047194 -0.924378,-10.919299 l -0.880266,-7.040198 3.132742,-0.604309 c 1.723015,-0.332365 9.024639,-1.742889 16.225806,-3.134486 39.962546,-7.722598 76.845704,-7.24858 123.073564,1.581718 l 11.29027,2.156629 -0.73146,10.14911 -0.73144,10.149112 4.4853,0.679786 c 2.46688,0.373884 6.75999,1.973864 9.54017,3.555515 4.0105,2.281601 5.05653,3.443002 5.06292,5.621469 0.009,3.239314 -15.54241,198.789282 -15.82549,198.989002 -0.72656,0.51272 -141.120748,0.97872 -148.151982,0.49179 z m 61.054298,-7.66424 c 3.668824,-2.12935 4.771404,-5.6698 4.410504,-14.16228 l -0.31926,-7.51032 -3.588584,-0.31036 -3.588547,-0.31033 v 8.36087 c 0,6.42024 -0.406045,8.66317 -1.748851,9.66291 -1.265151,0.94195 -2.257554,1.01556 -3.588537,0.26618 -1.395789,-0.78584 -1.973002,-3.0428 -2.391867,-9.35251 l -0.552076,-8.31668 h -3.312532 -3.312532 v 9.08514 c 0,8.19999 0.255407,9.32879 2.621609,11.58587 4.000486,3.81602 9.863053,4.19805 15.370539,1.00158 z M 51.44743,260.61233 c 0.334272,-4.14548 0.41148,-4.21833 5.054196,-4.77419 5.807634,-0.69532 6.898313,-1.6251 7.627547,-6.50236 0.844346,-5.64678 -2.045688,-7.62409 -11.871262,-8.12211 l -7.648119,-0.38771 v 11.99805 11.99805 h 3.249039 c 3.033056,0 3.271628,-0.28003 3.588599,-4.20973 z m -0.01206,-11.88625 c 0.23161,-1.46282 1.111717,-2.22866 2.561173,-2.22866 1.449502,0 2.329595,0.76584 2.561219,2.22866 0.289617,1.82814 -0.170693,2.22865 -2.561219,2.22865 -2.39036,0 -2.850625,-0.40051 -2.561173,-2.22865 z m 72.89971,9.96697 0.32886,-6.129 4.20832,6.129 c 3.61496,5.26484 4.66584,6.12901 7.45315,6.12901 h 3.24488 v -11.88628 -11.88625 h -3.25982 c -3.22757,0 -3.26311,0.0612 -3.58859,6.19073 l -0.32886,6.1908 -4.29757,-6.1908 c -3.64494,-5.25049 -4.77688,-6.19073 -7.45319,-6.19073 h -3.15559 v 11.88625 11.88628 h 3.25982 c 3.22369,0 3.2635,-0.0683 3.58859,-6.12901 z m 50.95568,3.31205 c 7.79118,-7.29517 2.79712,-20.95557 -7.66109,-20.95557 -8.45018,0 -12.60103,4.25057 -12.60103,12.90377 0,4.29181 0.49971,5.52626 3.2276,7.97337 2.68724,2.41065 4.13149,2.89539 8.62682,2.89539 4.49193,0 5.90477,-0.47339 8.4077,-2.81696 z m -11.91818,-4.33712 c -3.29088,-4.21472 -1.43422,-10.67533 3.06793,-10.67533 3.5048,0 5.15077,1.82499 5.15077,5.7111 0,6.7169 -4.65493,9.52857 -8.2187,4.96423 z m 20.53108,-31.47627 c 0.39522,-4.6307 0.76789,-16.55411 0.82813,-26.49648 l 0.10972,-18.077 h -8.83343 -8.83336 V 139.02576 96.433338 h -8.28135 -8.28129 v 68.799592 68.7996 l 8.55736,0.35675 c 4.70653,0.19619 12.03547,0.32647 16.28656,0.2894 l 7.72922,-0.0674 z M 142.8827,211.33387 v -22.78199 h -19.83899 -19.83902 l -0.31216,11.14335 -0.31216,11.1434 H 77.736448 52.892471 l -0.312586,-11.18012 -0.31257,-11.1801 -10.177087,0.28453 -10.177088,0.2845 -0.298804,21.27175 c -0.164427,11.69945 -0.05551,21.83991 0.241214,22.53437 0.427717,0.9999 12.035904,1.26264 55.783544,1.26264 H 142.88253 Z M 96.507319,189.04712 v -16.3436 h -9.385503 -9.385458 v 5.44788 c 0,4.18221 0.384775,5.44785 1.656244,5.44785 1.271468,0 1.656288,1.26567 1.656288,5.44787 v 5.44789 h -3.886596 -3.886567 l 0.297968,-21.04862 0.29798,-21.04857 11.3178,-0.28227 11.317803,-0.28228 v -5.41324 -5.41321 H 77.184282 57.8612 v 32.19197 32.19195 h 19.323082 19.323079 z m -46.37538,-29.2204 V 137.04475 H 73.29859 96.46526 l 0.727609,-2.60058 c 0.400213,-1.43032 0.442532,-6.54746 0.09437,-11.37148 l -0.63345,-8.77095 23.390621,-0.26693 23.3906,-0.26731 0.31216,-11.14334 0.31216,-11.1434 h 22.53425 c 12.39388,0 22.81435,-0.406532 23.15668,-0.90339 0.34221,-0.496878 0.94019,-4.919761 1.32865,-9.828576 l 0.7062,-8.925143 -4.29994,-1.012297 c -2.36497,-0.556765 -5.66636,-1.259869 -7.33641,-1.562448 -1.67006,-0.302565 -4.34988,-0.797532 -5.95517,-1.099896 l -2.91865,-0.549759 0.70774,-8.259846 c 0.61188,-7.140765 0.46027,-8.345037 -1.11886,-8.888629 -1.00465,-0.345844 -9.32625,-1.763988 -18.49239,-3.151458 -31.34563,-4.744726 -70.097541,-4.396692 -99.501769,0.893633 l -12.12316,2.18116 0.294217,5.447874 c 0.161921,2.996325 0.546195,6.844334 0.853932,8.551125 0.549202,3.046237 0.462649,3.115432 -4.711112,3.765639 -8.257469,1.037739 -16.86449,3.47065 -16.86449,4.766984 0,3.373263 10.042706,107.412157 10.469965,108.464897 0.348467,0.85854 3.39061,1.23813 9.922644,1.23813 H 50.1318 Z M 37.746111,177.0003 c -2.333897,-0.57537 -2.50208,-1.4712 -5.270079,-28.06929 -4.974488,-47.80053 -6.622802,-65.114699 -6.629229,-69.6347 -0.0083,-4.492408 0.204907,-4.834957 3.822416,-6.190778 2.106039,-0.789397 7.074809,-1.435222 11.041746,-1.435222 8.218997,0 7.871026,0.626545 6.225046,-11.20925 -0.932344,-6.704212 -0.918284,-6.716784 9.496184,-8.500554 32.323289,-5.536253 68.188845,-5.406508 101.177965,0.366022 4.75997,0.832912 8.93051,1.514385 9.26787,1.514385 0.33722,0 0.27586,4.011616 -0.13684,8.914696 l -0.75021,8.914701 h 6.70019 c 3.68511,0 8.42332,0.645863 10.52935,1.435222 3.70892,1.390187 3.82919,1.605713 3.82919,6.862922 0,8.871004 -0.22453,8.949446 -23.33434,8.148664 -10.75037,-0.372503 -20.82939,-0.388333 -22.39779,-0.03365 l -2.85164,0.642054 v 11.283638 11.28359 h -22.6356 -22.635596 v 11.37133 11.37126 l -23.463759,0.26732 -23.463713,0.2673 -0.552077,21.2962 -0.552122,21.29621 -2.760405,0.15359 c -1.518275,0.0843 -3.613712,-0.0571 -4.656611,-0.31411 z m 105.136589,0.26655 c 0,-6.47082 -0.1498,-6.54438 -13.34042,-6.54438 h -9.84727 v -7.39427 -7.39426 l 11.31779,-0.28227 11.31782,-0.28228 0.33259,-5.16619 0.33262,-5.16625 -11.92631,-0.28153 -11.92626,-0.28152 -0.32386,-7.14733 -0.32384,-7.14732 11.91751,-0.28154 11.9175,-0.28152 v -5.44788 -5.44783 l -19.59911,-0.27031 -19.59913,-0.27067 v 32.21484 32.21481 h 19.87515 19.87518 z"
       id="path1"
       sodipodi:nodetypes="scsssscscssscccsscsssscccsssscccsssssssscccsssscssscsscccsscsscccsssssssssssscccccccccccssccccccccccccccccsccccccsssccccccccccccccccccccsccccccssscssscssssccssssscccscssssssccsssscccccccccccccccsscccccccccccccccccccccs"
       inkscape:export-filename="Logo_Ugel.svg"
       inkscape:export-xdpi="96"
       inkscape:export-ydpi="96" /><path
       style="fill:#fafa00;fill-opacity:1;stroke-width:0.352323"
       d="m 50.966594,233.73444 c -8.592897,-0.12336 -16.337132,-0.3406 -17.209431,-0.48257 -1.248559,-0.20324 -1.634037,-0.42988 -1.811821,-1.06533 -0.258388,-0.92352 -0.0169,-42.71339 0.248042,-42.92627 0.09562,-0.0769 4.651673,-0.24449 10.124519,-0.37258 l 9.950633,-0.23288 v 4.13935 c 0,2.27665 0.110319,7.31701 0.245158,11.20082 l 0.245142,7.06145 h 24.990529 24.990505 l 0.24456,-7.75848 c 0.13443,-4.26714 0.24493,-9.29763 0.24541,-11.17886 l 8.6e-4,-3.42039 h 19.71527 19.71529 v 22.69142 22.69145 l -38.03562,-0.0613 c -20.919591,-0.0339 -45.066165,-0.16229 -53.659046,-0.28578 z"
       id="path2" /><path
       style="fill:#fafa00;fill-opacity:1;stroke-width:0.352323"
       d="m 156.23877,234.1792 c -2.04591,-0.053 -4.0965,-0.17457 -4.55684,-0.27022 l -0.83696,-0.17385 V 165.16665 96.598168 h 7.99769 7.99772 v 42.546412 42.54645 h 8.92767 8.92768 l -0.0136,8.25901 c -0.0184,11.70919 -0.60418,31.40294 -1.14429,38.465 l -0.4589,6.00019 -11.5605,-0.0698 c -6.35827,-0.0383 -13.23443,-0.11326 -15.28036,-0.16626 z"
       id="path3" /><path
       style="fill:#fafa00;fill-opacity:1;stroke-width:0.352323"
       d="m 103.2307,150.32606 v -32.03238 l 13.11252,0.1735 c 7.21188,0.0954 16.00424,0.26076 19.53853,0.36733 l 6.42601,0.19375 -0.10215,5.21954 -0.10215,5.2195 -8.18369,0.20799 c -4.50105,0.11434 -9.83933,0.22701 -11.86284,0.25028 l -3.67913,0.0424 0.27127,7.25791 c 0.1492,3.99187 0.30253,7.28675 0.34069,7.32202 0.0383,0.0353 5.28496,0.1878 11.6595,0.33904 6.37456,0.15123 11.70297,0.3762 11.84093,0.49995 0.1379,0.12374 0.12991,2.39329 -0.0176,5.04343 l -0.26852,4.81843 -11.30285,0.24528 -11.30287,0.2453 v 7.63671 7.63672 l 9.39266,0.002 c 13.73516,0.003 13.42659,-0.14944 13.60563,6.70605 l 0.12118,4.6378 h -19.7434 -19.74339 z"
       id="path4" /><path
       style="fill:#fafa00;fill-opacity:1;stroke-width:0.352323"
       d="m 58.220338,173.34861 v -32.03496 h 18.971299 18.971318 v 5.12131 5.12134 l -4.184853,0.21631 c -2.301668,0.11904 -6.193584,0.21806 -8.648674,0.22021 -2.455119,0.002 -5.582913,0.0986 -6.950669,0.21459 l -2.486828,0.21072 -0.195847,2.03939 c -0.107757,1.12164 -0.291123,10.63624 -0.407546,21.14354 l -0.2117,19.10419 h 4.143871 4.14387 l -0.146941,-4.92203 c -0.153376,-5.13924 -0.507451,-6.42368 -1.770826,-6.42368 -1.096738,0 -1.511262,-1.70701 -1.511262,-6.22321 v -4.12141 h 9.11367 9.113673 v 16.18431 16.18433 H 77.191576 58.220277 Z"
       id="path5" /><path
       style="fill:#fafa00;fill-opacity:1;stroke-width:0.352323"
       d="m 32.659489,181.97173 c -1.371496,-0.27581 -1.593435,-0.44883 -1.773383,-1.3825 C 30.263052,177.35643 20.64969,77.34096 20.64969,74.091634 v -1.561537 l 2.324919,-0.932666 c 2.94393,-1.180988 6.891879,-2.111109 13.450506,-3.168878 2.845595,-0.458938 5.348198,-0.990867 5.561348,-1.182089 0.268746,-0.241072 0.2511,-1.448488 -0.05752,-3.938541 -0.244806,-1.974982 -0.554481,-5.636693 -0.688155,-8.137126 -0.228795,-4.2795 -0.201599,-4.557263 0.463544,-4.734238 2.395589,-0.637392 18.928301,-3.333751 24.699719,-4.028344 14.099234,-1.696834 20.166329,-2.017643 38.314619,-2.025955 21.38039,-0.01 31.67597,0.710442 50.03218,3.500059 11.69277,1.776957 15.83047,2.579238 16.62381,3.223297 0.52855,0.429114 0.67356,1.052449 0.67356,2.895541 0,2.248348 -0.58925,10.620672 -0.89699,12.745054 l -0.1471,1.015058 4.33488,0.77948 c 5.51747,0.992128 15.63316,3.210124 15.95428,3.498177 0.5124,0.459681 -1.10521,17.266059 -1.75228,18.205251 -0.47169,0.684657 -8.90882,0.989375 -27.75605,1.002437 l -17.88894,0.01266 -0.24454,7.758469 c -0.13442,4.267157 -0.24493,9.273407 -0.2454,11.125027 l -8.5e-4,3.36655 -11.43859,0.22011 c -6.29121,0.12101 -15.95823,0.22167 -21.48223,0.22359 -5.52399,0.002 -10.94464,0.10068 -12.045893,0.21915 l -2.002248,0.21568 0.242001,2.53443 c 0.13308,1.39395 0.332047,5.68788 0.442076,9.54209 0.153074,5.36158 0.08029,7.39957 -0.309949,8.67612 l -0.510026,1.66851 -23.131881,0.086 -23.131883,0.086 v 22.68891 22.6889 l -7.904715,-0.0359 c -4.347594,-0.0195 -8.610176,-0.17764 -9.472416,-0.35098 z m 12.687329,-6.37067 c 0.109716,-0.96355 0.393681,-10.53649 0.630942,-21.27321 0.237261,-10.73672 0.452443,-19.54312 0.478184,-19.56977 0.02577,-0.0265 10.592619,-0.17675 23.481963,-0.3337 l 23.435136,-0.28523 0.098,-11.26229 0.098,-11.2623 H 116.06925 138.5695 V 100.2817 88.948853 l 1.58093,-0.423285 c 1.76529,-0.472617 9.004,-0.538467 29.66593,-0.269822 12.29687,0.159922 12.89477,0.138937 14.29748,-0.500566 2.7489,-1.253191 2.9999,-1.880465 2.9999,-7.497094 0,-4.474719 -0.0708,-5.016912 -0.74397,-5.691844 -1.85474,-1.859754 -7.64875,-2.995387 -15.28266,-2.995387 h -4.95555 l 0.17414,-1.585063 c 0.45253,-4.119261 0.90678,-10.84017 0.90678,-13.416638 V 53.713967 L 157.44781,52.13554 C 138.6835,49.102365 128.76055,48.225734 110.4007,47.979242 89.501922,47.698648 76.038317,48.61814 58.034342,51.555581 48.66314,53.08453 46.89786,53.71359 46.488745,55.669891 c -0.129156,0.617462 0.120115,3.802207 0.553734,7.077229 0.80575,6.084754 0.768946,7.458985 -0.219491,8.194881 -0.365786,0.272326 -2.727104,0.507971 -6.764846,0.675101 -8.113108,0.335807 -12.734085,1.459474 -13.880384,3.375243 -1.140735,1.906487 0.189985,17.832061 6.392183,76.499085 2.07222,19.60127 2.537264,22.82683 3.542507,24.57068 0.649508,1.12672 0.986405,1.20433 5.43473,1.25215 l 3.600094,0.0388 z"
       id="path6" /><path
       style="fill:#fafa00;fill-opacity:1;stroke-width:0.352323"
       d="m 117.73816,252.97435 v -11.88514 h 1.68589 c 3.61001,0 5.08124,1.23791 9.91574,8.34337 1.49592,2.19861 2.82826,3.9988 2.96075,4.00045 0.13247,0.002 0.3587,-2.06177 0.5027,-4.58536 0.4225,-7.40368 0.62232,-7.74362 4.5572,-7.75354 l 1.95294,-0.005 v 11.89194 11.89195 l -2.35832,-0.16986 c -1.34832,-0.0971 -2.7932,-0.42545 -3.37373,-0.76666 -0.91802,-0.5396 -3.35366,-3.65111 -7.47035,-9.54333 -1.70915,-2.44633 -1.50738,-2.88309 -1.99899,4.32697 -0.38869,5.70035 -0.45504,5.80112 -3.95128,6.00084 l -2.42255,0.13838 z"
       id="path7" /><path
       style="fill:#fafa00;fill-opacity:1;stroke-width:0.352323"
       d="m 86.129429,264.53594 c -2.168878,-0.68671 -5.377932,-3.54236 -5.946783,-5.29191 -0.233025,-0.71671 -0.52436,-4.94457 -0.647398,-9.39527 l -0.223699,-8.09216 h 3.195101 3.195098 l 0.194053,1.41821 c 0.106852,0.78002 0.290311,3.07001 0.407969,5.08889 0.289225,4.96324 0.875512,8.77899 1.520891,9.89858 1.529935,2.65401 5.181548,1.93409 6.059776,-1.19471 0.245978,-0.8763 0.418591,-4.46746 0.418591,-8.70881 v -7.21757 l 2.138912,0.20788 c 1.17642,0.11433 2.747863,0.28565 3.492104,0.3807 l 1.353166,0.17276 0.25333,5.90013 c 0.39542,9.20923 -0.49096,12.69482 -3.804931,14.96229 -3.339054,2.28465 -7.951253,3.02814 -11.60618,1.87092 z"
       id="path8" /><path
       style="fill:#fafa00;fill-opacity:1;stroke-width:0.352323"
       d="m 44.828817,252.89266 v -11.8891 l 4.928808,0.23378 c 8.957248,0.42488 12.445974,1.46204 13.7391,4.08445 0.597318,1.21136 0.700222,1.90299 0.505732,3.39928 -0.672628,5.17493 -1.768762,6.10339 -8.333466,7.0587 -3.554118,0.51722 -3.992695,0.92818 -4.313975,4.04228 -0.377812,3.66203 -0.755836,4.50837 -2.123321,4.75371 -0.631393,0.11324 -1.880347,0.20598 -2.775436,0.20598 h -1.627442 z m 11.457176,-2.19296 c 0.725963,-0.65125 0.544524,-2.84852 -0.297591,-3.60394 -0.744048,-0.66745 -2.756989,-0.8997 -3.571177,-0.412 -1.166651,0.69879 -1.68423,3.23909 -0.818258,4.01594 0.579189,0.51958 4.107837,0.51958 4.687026,0 z"
       id="path9" /><path
       style="fill:#fafa00;fill-opacity:1;stroke-width:0.352323"
       d="m 163.61393,264.45382 c -2.34486,-0.44704 -3.5459,-1.12391 -5.63812,-3.1775 -2.42541,-2.38064 -2.80318,-3.60908 -2.56497,-8.34084 0.22008,-4.37176 0.87584,-6.22702 2.94709,-8.3379 1.82855,-1.8635 3.49961,-2.66668 6.59637,-3.17043 5.46835,-0.88953 10.06627,1.40371 12.62342,6.29595 0.86402,1.65305 0.98024,2.29081 0.98024,5.37921 0,3.08843 -0.1162,3.72615 -0.98024,5.37922 -1.18914,2.27503 -3.32123,4.4587 -5.18704,5.31261 -1.61983,0.74132 -6.44594,1.10406 -8.77675,0.65968 z m 5.70474,-5.05621 c 1.29872,-0.9669 2.11805,-3.1116 2.27953,-5.96698 0.25147,-4.44696 -0.97506,-6.24171 -4.48418,-6.56156 -3.25191,-0.29637 -5.48144,2.15017 -5.48144,6.015 0,3.91636 2.98798,7.51816 5.89197,7.10236 0.68319,-0.0978 1.49055,-0.36277 1.79412,-0.58882 z"
       id="path10" /></g></svg>
