<svg id="visual" viewBox="0 0 2960 200" width="2960" height="200" xmlns="http://www.w3.org/2000/svg" xmlns:xlink="http://www.w3.org/1999/xlink" version="1.1"><rect x="0" y="0" width="2960" height="200" fill="#f7f7f7"></rect><defs><linearGradient id="grad1_0" x1="93.2%" y1="0%" x2="100%" y2="100%"><stop offset="-246%" stop-color="#f7f7f7" stop-opacity="1"></stop><stop offset="346%" stop-color="#f7f7f7" stop-opacity="1"></stop></linearGradient></defs><defs><linearGradient id="grad2_0" x1="0%" y1="0%" x2="6.8%" y2="100%"><stop offset="-246%" stop-color="#f7f7f7" stop-opacity="1"></stop><stop offset="346%" stop-color="#f7f7f7" stop-opacity="1"></stop></linearGradient></defs><g transform="translate(2960, 0)"><path d="M0 200C-32.8 191.4 -65.6 182.7 -96.5 167.1C-127.4 151.6 -156.3 129 -173.2 100C-190.1 71 -195.1 35.5 -200 0L0 0Z" fill="#9C3620"></path></g><g transform="translate(0, 200)"><path d="M0 -200C32.3 -190.4 64.6 -180.9 95.5 -165.4C126.4 -149.9 156 -128.6 173.2 -100C190.4 -71.4 195.2 -35.7 200 0L0 0Z" fill="#9C3620"></path></g></svg>